{
  "accessors": [
    {
      "bufferView": 2,
      "componentType": 5126,
      "count": 65532,
      "max": [
        0.2101060301065445,
        0.04129759594798088,
        0.32183846831321716
      ],
      "min": [
        -0.1978987604379654,
        -0.08468403667211533,
        -0.0003212541341781616
      ],
      "type": "VEC3"
    },
    {
      "bufferView": 2,
      "byteOffset": 786384,
      "componentType": 5126,
      "count": 65532,
      "max": [
        1.0,
        1.0,
        1.0
      ],
      "min": [
        -1.0,
        -1.0,
        -1.0
      ],
      "type": "VEC3"
    },
    {
      "bufferView": 3,
      "componentType": 5126,
      "count": 65532,
      "max": [
        1.0,
        1.0,
        1.0,
        1.0
      ],
      "min": [
        -1.0,
        -1.0,
        -1.0,
        -1.0
      ],
      "type": "VEC4"
    },
    {
      "bufferView": 1,
      "componentType": 5126,
      "count": 65532,
      "max": [
        0.9938870668411255,
        0.9921292662620544
      ],
      "min": [
        0.012629065662622452,
        0.006483768112957478
      ],
      "type": "VEC2"
    },
    {
      "bufferView": 1,
      "byteOffset": 524256,
      "componentType": 5126,
      "count": 65532,
      "max": [
        0.9938870668411255,
        0.9921292662620544
      ],
      "min": [
        0.012629065662622452,
        0.006483768112957478
      ],
      "type": "VEC2"
    },
    {
      "bufferView": 1,
      "byteOffset": 1048512,
      "componentType": 5126,
      "count": 65532,
      "max": [
        0.9938870668411255,
        0.9921292662620544
      ],
      "min": [
        0.012629065662622452,
        0.006483768112957478
      ],
      "type": "VEC2"
    },
    {
      "bufferView": 0,
      "componentType": 5125,
      "count": 251988,
      "type": "SCALAR"
    },
    {
      "bufferView": 2,
      "byteOffset": 1572768,
      "componentType": 5126,
      "count": 16248,
      "max": [
        0.17669907212257385,
        0.041242752224206924,
        0.29617875814437866
      ],
      "min": [
        -0.1716614067554474,
        -0.04414462298154831,
        0.0014085471630096436
      ],
      "type": "VEC3"
    },
    {
      "bufferView": 2,
      "byteOffset": 1767744,
      "componentType": 5126,
      "count": 16248,
      "max": [
        1.0,
        1.0,
        1.0
      ],
      "min": [
        -1.0,
        -1.0,
        -1.0
      ],
      "type": "VEC3"
    },
    {
      "bufferView": 3,
      "byteOffset": 1048512,
      "componentType": 5126,
      "count": 16248,
      "max": [
        1.0,
        1.0,
        1.0,
        1.0
      ],
      "min": [
        -1.0,
        -1.0,
        -1.0,
        -1.0
      ],
      "type": "VEC4"
    },
    {
      "bufferView": 1,
      "byteOffset": 1572768,
      "componentType": 5126,
      "count": 16248,
      "max": [
        0.8922989368438721,
        0.9929754734039307
      ],
      "min": [
        0.13603052496910095,
        0.011577323079109192
      ],
      "type": "VEC2"
    },
    {
      "bufferView": 1,
      "byteOffset": 1702752,
      "componentType": 5126,
      "count": 16248,
      "max": [
        0.8922989368438721,
        0.9929754734039307
      ],
      "min": [
        0.13603052496910095,
        0.011577323079109192
      ],
      "type": "VEC2"
    },
    {
      "bufferView": 1,
      "byteOffset": 1832736,
      "componentType": 5126,
      "count": 16248,
      "max": [
        0.8922989368438721,
        0.9929754734039307
      ],
      "min": [
        0.13603052496910095,
        0.011577323079109192
      ],
      "type": "VEC2"
    },
    {
      "bufferView": 0,
      "byteOffset": 1007952,
      "componentType": 5125,
      "count": 47913,
      "type": "SCALAR"
    }
  ],
  "asset": {
    "extras": {
      "author": "Gwyneth.Valdehueza (https://sketchfab.com/Gweenn.Valdehueza)",
      "license": "CC-BY-4.0 (http://creativecommons.org/licenses/by/4.0/)",
      "source": "https://sketchfab.com/3d-models/messenger-bag-ef22142bf6e94939bffd7fe74ca23184",
      "title": "Messenger Bag"
    },
    "generator": "Sketchfab-12.68.0",
    "version": "2.0"
  },
  "bufferViews": [
    {
      "buffer": 0,
      "byteLength": 1199604,
      "name": "floatBufferViews",
      "target": 34963
    },
    {
      "buffer": 0,
      "byteLength": 1962720,
      "byteOffset": 1199604,
      "byteStride": 8,
      "name": "floatBufferViews",
      "target": 34962
    },
    {
      "buffer": 0,
      "byteLength": 1962720,
      "byteOffset": 3162324,
      "byteStride": 12,
      "name": "floatBufferViews",
      "target": 34962
    },
    {
      "buffer": 0,
      "byteLength": 1308480,
      "byteOffset": 5125044,
      "byteStride": 16,
      "name": "floatBufferViews",
      "target": 34962
    }
  ],
  "buffers": [
    {
      "byteLength": 6433524,
      "uri": "scene.bin"
    }
  ],
  "images": [
    {
      "uri": "textures/156_inch_messenger_baseColor.png"
    },
    {
      "uri": "textures/156_inch_messenger_metallicRoughness.png"
    },
    {
      "uri": "textures/156_inch_messenger_normal.png"
    }
  ],
  "materials": [
    {
      "doubleSided": true,
      "name": "156_inch_messenger",
      "normalTexture": {
        "index": 2,
        "texCoord": 1
      },
      "occlusionTexture": {
        "index": 1
      },
      "pbrMetallicRoughness": {
        "baseColorTexture": {
          "index": 0
        },
        "metallicRoughnessTexture": {
          "index": 1
        }
      }
    }
  ],
  "meshes": [
    {
      "name": "156_inch_messenger_156_inch_messenger_0",
      "primitives": [
        {
          "attributes": {
            "NORMAL": 1,
            "POSITION": 0,
            "TANGENT": 2,
            "TEXCOORD_0": 3,
            "TEXCOORD_1": 4,
            "TEXCOORD_2": 5
          },
          "indices": 6,
          "material": 0,
          "mode": 4
        }
      ]
    },
    {
      "name": "156_inch_messenger_156_inch_messenger_0",
      "primitives": [
        {
          "attributes": {
            "NORMAL": 8,
            "POSITION": 7,
            "TANGENT": 9,
            "TEXCOORD_0": 10,
            "TEXCOORD_1": 11,
            "TEXCOORD_2": 12
          },
          "indices": 13,
          "material": 0,
          "mode": 4
        }
      ]
    }
  ],
  "nodes": [
    {
      "children": [
        1
      ],
      "matrix": [
        1.0,
        0.0,
        0.0,
        0.0,
        0.0,
        2.220446049250313e-16,
        -1.0,
        0.0,
        0.0,
        1.0,
        2.220446049250313e-16,
        0.0,
        0.0,
        0.0,
        0.0,
        1.0
      ],
      "name": "Sketchfab_model"
    },
    {
      "children": [
        2
      ],
      "matrix": [
        1.0,
        0.0,
        0.0,
        0.0,
        0.0,
        0.0,
        1.0,
        0.0,
        0.0,
        -1.0,
        0.0,
        0.0,
        0.0,
        0.0,
        0.0,
        1.0
      ],
      "name": "156_inch_messenger_laptop_case.fbx"
    },
    {
      "children": [
        3
      ],
      "name": "RootNode"
    },
    {
      "children": [
        4,
        5
      ],
      "matrix": [
        100.0,
        0.0,
        0.0,
        0.0,
        0.0,
        -1.629206793918314e-05,
        -99.99999999999868,
        0.0,
        0.0,
        99.99999999999868,
        -1.629206793918314e-05,
        0.0,
        0.0,
        0.0,
        0.0,
        1.0
      ],
      "name": "156_inch_messenger"
    },
    {
      "mesh": 0,
      "name": "156_inch_messenger_156_inch_messenger_0"
    },
    {
      "mesh": 1,
      "name": "156_inch_messenger_156_inch_messenger_0"
    }
  ],
  "samplers": [
    {
      "magFilter": 9729,
      "minFilter": 9987,
      "wrapS": 10497,
      "wrapT": 10497
    }
  ],
  "scene": 0,
  "scenes": [
    {
      "name": "Sketchfab_Scene",
      "nodes": [
        0
      ]
    }
  ],
  "textures": [
    {
      "sampler": 0,
      "source": 0
    },
    {
      "sampler": 0,
      "source": 1
    },
    {
      "sampler": 0,
      "source": 2
    }
  ]
}
